<?xml version="1.0" encoding="utf-8"?>
<!-- Generator: Adobe Illustrator 19.2.1, SVG Export Plug-In . SVG Version: 6.00 Build 0)  -->
<svg version="1.1" id="Layer_1" xmlns="http://www.w3.org/2000/svg" xmlns:xlink="http://www.w3.org/1999/xlink" x="0px" y="0px"
	 viewBox="0 0 67.5 75.8" style="enable-background:new 0 0 67.5 75.8;" xml:space="preserve">
<style type="text/css">
	.st0{fill:#000000;stroke:#000000;stroke-miterlimit:10;}
	.st1{fill:#39B54A;}
	.st2{fill:#ED1C24;}
	.st3{fill:#FFDE17;}
	.st4{fill:#2B3990;}
	.st5{fill:none;}
	.st6{fill:#F1F2F2;}
	.st7{font-family:'ComicSansMS';}
	.st8{font-size:11px;}
	.st9{fill:#FFFFFF;}
	.st10{fill:url(#SVGID_1_);}
</style>
<g>
	<path class="st0" d="M54.8,75.1H12.7c-6.6,0-12-5.4-12-12V12.9c0-6.6,5.4-12,12-12h42.2c6.6,0,12,5.4,12,12v50.3
		C66.8,69.7,61.4,75.1,54.8,75.1z"/>
	<path class="st1" d="M11.4,60.8L11.4,60.8c-3.9,0-7.2-3.2-7.2-7.2v0c0-3.9,3.2-7.2,7.2-7.2h0c3.9,0,7.2,3.2,7.2,7.2v0
		C18.5,57.6,15.3,60.8,11.4,60.8z"/>
	<path class="st2" d="M34.1,60.8L34.1,60.8c-3.9,0-7.2-3.2-7.2-7.2v0c0-3.9,3.2-7.2,7.2-7.2h0c3.9,0,7.2,3.2,7.2,7.2v0
		C41.3,57.6,38.1,60.8,34.1,60.8z"/>
	<path class="st3" d="M22,72.9L22,72.9c-3.9,0-7.2-3.2-7.2-7.2v0c0-3.9,3.2-7.2,7.2-7.2h0c3.9,0,7.2,3.2,7.2,7.2v0
		C29.2,69.6,26,72.9,22,72.9z"/>
	<path class="st4" d="M22,48.8L22,48.8c-3.9,0-7.2-3.2-7.2-7.2v0c0-3.9,3.2-7.2,7.2-7.2h0c3.9,0,7.2,3.2,7.2,7.2v0
		C29.2,45.6,26,48.8,22,48.8z"/>
	<path d="M58.2,11.1H10.3c-0.5,0-1-0.4-1-1v0c0-0.5,0.4-1,1-1h47.9c0.5,0,1,0.4,1,1v0C59.2,10.7,58.7,11.1,58.2,11.1z"/>
	<path d="M49.9,16H10.3c-0.5,0-1-0.4-1-1v0c0-0.5,0.4-1,1-1h39.6c0.5,0,1,0.4,1,1v0C50.8,15.6,50.4,16,49.9,16z"/>
	<path d="M56.9,21.1H10.3c-0.5,0-1-0.4-1-1v0c0-0.5,0.4-1,1-1h46.6c0.5,0,1,0.4,1,1v0C57.9,20.7,57.4,21.1,56.9,21.1z"/>
	<path d="M42.5,26.2H10.3c-0.5,0-1-0.4-1-1v0c0-0.5,0.4-1,1-1h32.2c0.5,0,1,0.4,1,1v0C43.5,25.8,43,26.2,42.5,26.2z"/>
	<path d="M53.2,30.4h-43c-0.5,0-1-0.4-1-1v0c0-0.5,0.4-1,1-1h43c0.5,0,1,0.4,1,1v0C54.2,30,53.8,30.4,53.2,30.4z"/>
	<rect x="17.9" y="36.1" class="st5" width="8.2" height="11"/>
	<text transform="matrix(1 0 0 1 18.7894 44.6962)" class="st6 st7 st8">x</text>
	<rect x="17.9" y="61.5" class="st5" width="8.2" height="11"/>
	<text transform="matrix(1 0 0 1 18.5696 70.0941)" class="st9 st7 st8">B</text>
	<rect x="30" y="48.2" class="st5" width="8.2" height="11"/>
	<text transform="matrix(1 0 0 1 30.1084 56.7526)" class="st6 st7 st8">A</text>
	<rect x="6.4" y="49.3" class="st5" width="8.2" height="11"/>
	<text transform="matrix(1 0 0 1 6.9935 57.8382)" class="st6 st7 st8">Y</text>
	<linearGradient id="SVGID_1_" gradientUnits="userSpaceOnUse" x1="39.2865" y1="52.175" x2="65.375" y2="52.175">
		<stop  offset="0" style="stop-color:#FFF33B"/>
		<stop  offset="5.948725e-002" style="stop-color:#FFE029"/>
		<stop  offset="0.1303" style="stop-color:#FFD218"/>
		<stop  offset="0.2032" style="stop-color:#FEC90F"/>
		<stop  offset="0.2809" style="stop-color:#FDC70C"/>
		<stop  offset="0.6685" style="stop-color:#F3903F"/>
		<stop  offset="0.8876" style="stop-color:#ED683C"/>
		<stop  offset="1" style="stop-color:#E93E3A"/>
	</linearGradient>
	<path class="st10" d="M41.6,36.3c0.7,0,1.4,0,2.1,0c0.2,0,0.3,0,0.2-0.3c-0.1-0.4,0.1-0.5,0.3-0.5c1-0.2,2.1-0.3,3.1-0.4
		c1.5-0.1,3-0.3,4.4-0.3c2.1,0.1,4.2,0.1,6.2,0.3c0.8,0.1,1.7,0.2,2.5,0.4c0.2,0,0.4,0.1,0.3,0.5c-0.1,0.3,0.1,0.3,0.3,0.3
		c1.3,0,2.7,0,4,0c0.2,0,0.3,0,0.3,0.3C65.3,39.8,65,43,64.1,46c-1.1,3.5-3,5.7-5.8,6.3c-0.2,0-0.3,0.1-0.5,0.3
		c-1.1,1.5-2.4,2.5-4,2.9c-0.2,0.1-0.2,0.2-0.2,0.4c0,3,0,6,0,8.9c0,0.3,0,0.4,0.3,0.4c1,0.1,1.9,0.2,2.8,0.5
		c0.6,0.2,1.1,0.4,1.6,0.8c0.6,0.5,0.6,1.1,0,1.6c-0.8,0.6-1.6,0.8-2.5,1c-2.2,0.5-4.3,0.4-6.5,0.1c-0.8-0.1-1.7-0.3-2.4-0.8
		c-0.2-0.1-0.5-0.3-0.6-0.5c-0.3-0.4-0.3-0.8,0-1.2c0.4-0.4,0.8-0.6,1.3-0.8c1-0.4,2.1-0.6,3.2-0.7c0.3,0,0.4-0.1,0.4-0.6
		c0-2.9,0-5.8,0-8.7c0-0.3-0.1-0.5-0.3-0.5c-1.5-0.4-2.8-1.4-3.9-2.8c-0.2-0.2-0.3-0.3-0.5-0.4c-2.8-0.6-4.7-2.9-5.8-6.3
		c-0.7-2.1-1-4.2-1.2-6.5c-0.1-1-0.1-2-0.1-3c0-0.3,0.1-0.3,0.2-0.3C40.2,36.3,40.9,36.3,41.6,36.3z M52.3,38.2
		c-0.5,1.4-1,2.6-1.4,3.9c-0.1,0.2-0.2,0.4-0.4,0.4c-0.4,0.1-0.7,0.1-1.1,0.2c-0.7,0.1-1.4,0.3-2.1,0.4c0,0.2,0.2,0.4,0.3,0.5
		c0.7,0.9,1.3,1.7,2,2.6c0.1,0.1,0.2,0.2,0.2,0.5c-0.1,0.7-0.2,1.5-0.3,2.2c-0.1,0.7-0.2,1.4-0.3,2.2c0.2-0.1,0.3-0.2,0.4-0.3
		c0.8-0.6,1.6-1.1,2.4-1.7c0.2-0.1,0.3-0.1,0.5,0c0.4,0.3,0.8,0.6,1.2,0.8c0.5,0.4,1.1,0.7,1.6,1.1c0-0.2,0-0.3,0-0.4
		c-0.2-1.3-0.3-2.6-0.5-3.9c0-0.3,0-0.4,0.2-0.6c0.7-0.9,1.4-1.8,2.1-2.7c0.1-0.1,0.2-0.1,0.2-0.3c-0.7-0.1-1.4-0.3-2.1-0.4
		c-1.3-0.2-1.3-0.2-1.8-1.8C53,40,52.7,39.1,52.3,38.2z M45.8,50.3c-0.3-0.7-0.5-1.4-0.6-2.1c-0.3-2-0.5-4.1-0.7-6.1
		c-0.2-1.4-0.3-2.8-0.4-4.2c0-0.2-0.1-0.3-0.3-0.3c-1,0-2,0-2.9,0c-0.2,0-0.3,0.1-0.2,0.3c0.1,1.5,0.2,3,0.5,4.5
		c0.3,2,0.9,4,1.8,5.7C43.6,49.3,44.6,50.1,45.8,50.3z M58.8,50.3c1.1-0.3,2-0.8,2.6-1.8c1-1.5,1.5-3.2,1.9-5.1
		c0.4-1.8,0.5-3.7,0.7-5.6c0-0.3-0.1-0.3-0.3-0.3c-1,0-1.9,0-2.9,0c-0.2,0-0.3,0.1-0.3,0.4c-0.2,2.3-0.5,4.6-0.7,6.9
		C59.7,46.6,59.6,48.5,58.8,50.3z"/>
</g>
</svg>
